<mxfile host="65bd71144e">
    <diagram id="CaRUOb8uimrEYN5OTZUg" name="Page-1">
        <mxGraphModel dx="1080" dy="790" grid="1" gridSize="10" guides="1" tooltips="1" connect="1" arrows="1" fold="1" page="1" pageScale="1" pageWidth="850" pageHeight="1100" math="0" shadow="0">
            <root>
                <mxCell id="0"/>
                <mxCell id="1" parent="0"/>
                <mxCell id="2" value="#app&lt;br&gt;" style="whiteSpace=wrap;html=1;align=left;verticalAlign=top;fillColor=#60a917;fontColor=#ffffff;strokeColor=#2D7600;" parent="1" vertex="1">
                    <mxGeometry y="40" width="850" height="640" as="geometry"/>
                </mxCell>
                <mxCell id="3" value="#forehead" style="rounded=0;whiteSpace=wrap;html=1;align=left;verticalAlign=top;fillColor=#1ba1e2;fontColor=#ffffff;strokeColor=#006EAF;" vertex="1" parent="1">
                    <mxGeometry x="10" y="70" width="830" height="30" as="geometry"/>
                </mxCell>
                <mxCell id="4" value="#chin" style="rounded=0;whiteSpace=wrap;html=1;align=left;verticalAlign=top;fillColor=#1ba1e2;fontColor=#ffffff;strokeColor=#006EAF;" vertex="1" parent="1">
                    <mxGeometry x="10" y="640" width="830" height="30" as="geometry"/>
                </mxCell>
                <mxCell id="5" value="#face" style="rounded=0;whiteSpace=wrap;html=1;align=left;verticalAlign=top;fillColor=#1ba1e2;fontColor=#ffffff;strokeColor=#006EAF;" vertex="1" parent="1">
                    <mxGeometry x="10" y="110" width="830" height="520" as="geometry"/>
                </mxCell>
                <mxCell id="6" value="#nav-container" style="rounded=0;whiteSpace=wrap;html=1;verticalAlign=top;align=left;fillColor=#d80073;fontColor=#ffffff;strokeColor=#A50040;" vertex="1" parent="1">
                    <mxGeometry x="20" y="140" width="70" height="480" as="geometry"/>
                </mxCell>
                <mxCell id="7" value="#nav" style="rounded=0;whiteSpace=wrap;html=1;align=left;verticalAlign=top;fillColor=#008a00;fontColor=#ffffff;strokeColor=#005700;" vertex="1" parent="1">
                    <mxGeometry x="30" y="180" width="50" height="430" as="geometry"/>
                </mxCell>
                <mxCell id="8" value="#page-container" style="rounded=0;whiteSpace=wrap;html=1;align=left;verticalAlign=top;fillColor=#d80073;fontColor=#ffffff;strokeColor=#A50040;" vertex="1" parent="1">
                    <mxGeometry x="100" y="140" width="730" height="480" as="geometry"/>
                </mxCell>
                <mxCell id="9" value="#explorer" style="rounded=0;whiteSpace=wrap;html=1;align=left;verticalAlign=top;fillColor=#008a00;fontColor=#ffffff;strokeColor=#005700;" vertex="1" parent="1">
                    <mxGeometry x="110" y="180" width="130" height="430" as="geometry"/>
                </mxCell>
                <mxCell id="10" value="#editor" style="rounded=0;whiteSpace=wrap;html=1;align=left;verticalAlign=top;fillColor=#008a00;fontColor=#ffffff;strokeColor=#005700;" vertex="1" parent="1">
                    <mxGeometry x="250" y="180" width="570" height="430" as="geometry"/>
                </mxCell>
            </root>
        </mxGraphModel>
    </diagram>
</mxfile>